<svg xmlns='http://www.w3.org/2000/svg' width='1100' height='1510'><rect width="1100" height="1510" fill="white"/><line x1="220" y1="50" x2="220" y2="1470" stroke="#333" stroke-width="1" /><line x1="220" y1="1470" x2="1060" y2="1470" stroke="#333" stroke-width="1" /><text x="550.0" y="20" text-anchor="middle" font-size="16" font-family="Arial">Parameter medians for models with NAIRU below 3%</text><text x="214" y="54" text-anchor="end" font-size="10" font-family="Arial">alpha_pt_0</text><line x1="220" y1="50" x2="1060" y2="50" stroke="#eee" stroke-width="0.5" /><text x="214" y="74" text-anchor="end" font-size="10" font-family="Arial">alpha_pt_lag[1]</text><line x1="220" y1="70" x2="1060" y2="70" stroke="#eee" stroke-width="0.5" /><text x="214" y="94" text-anchor="end" font-size="10" font-family="Arial">alpha_pt_lag[2]</text><line x1="220" y1="90" x2="1060" y2="90" stroke="#eee" stroke-width="0.5" /><text x="214" y="114" text-anchor="end" font-size="10" font-family="Arial">alpha_pt_lag[3]</text><line x1="220" y1="110" x2="1060" y2="110" stroke="#eee" stroke-width="0.5" /><text x="214" y="134" text-anchor="end" font-size="10" font-family="Arial">alpha_pt_lag[4]</text><line x1="220" y1="130" x2="1060" y2="130" stroke="#eee" stroke-width="0.5" /><text x="214" y="154" text-anchor="end" font-size="10" font-family="Arial">delta_pt_0</text><line x1="220" y1="150" x2="1060" y2="150" stroke="#eee" stroke-width="0.5" /><text x="214" y="174" text-anchor="end" font-size="10" font-family="Arial">delta_wage1_0</text><line x1="220" y1="170" x2="1060" y2="170" stroke="#eee" stroke-width="0.5" /><text x="214" y="194" text-anchor="end" font-size="10" font-family="Arial">delta_wage2_0</text><line x1="220" y1="190" x2="1060" y2="190" stroke="#eee" stroke-width="0.5" /><text x="214" y="214" text-anchor="end" font-size="10" font-family="Arial">delta_wage3_0</text><line x1="220" y1="210" x2="1060" y2="210" stroke="#eee" stroke-width="0.5" /><text x="214" y="234" text-anchor="end" font-size="10" font-family="Arial">eps_pt</text><line x1="220" y1="230" x2="1060" y2="230" stroke="#eee" stroke-width="0.5" /><text x="214" y="254" text-anchor="end" font-size="10" font-family="Arial">eps_wage1</text><line x1="220" y1="250" x2="1060" y2="250" stroke="#eee" stroke-width="0.5" /><text x="214" y="274" text-anchor="end" font-size="10" font-family="Arial">eps_wage2</text><line x1="220" y1="270" x2="1060" y2="270" stroke="#eee" stroke-width="0.5" /><text x="214" y="294" text-anchor="end" font-size="10" font-family="Arial">eps_wage3</text><line x1="220" y1="290" x2="1060" y2="290" stroke="#eee" stroke-width="0.5" /><text x="214" y="314" text-anchor="end" font-size="10" font-family="Arial">gamma_pt_0</text><line x1="220" y1="310" x2="1060" y2="310" stroke="#eee" stroke-width="0.5" /><text x="214" y="334" text-anchor="end" font-size="10" font-family="Arial">gamma_pt_lag[1]</text><line x1="220" y1="330" x2="1060" y2="330" stroke="#eee" stroke-width="0.5" /><text x="214" y="354" text-anchor="end" font-size="10" font-family="Arial">gamma_pt_lag[2]</text><line x1="220" y1="350" x2="1060" y2="350" stroke="#eee" stroke-width="0.5" /><text x="214" y="374" text-anchor="end" font-size="10" font-family="Arial">gamma_pt_lag[3]</text><line x1="220" y1="370" x2="1060" y2="370" stroke="#eee" stroke-width="0.5" /><text x="214" y="394" text-anchor="end" font-size="10" font-family="Arial">gamma_pt_lag[4]</text><line x1="220" y1="390" x2="1060" y2="390" stroke="#eee" stroke-width="0.5" /><text x="214" y="414" text-anchor="end" font-size="10" font-family="Arial">gamma_wage1_0</text><line x1="220" y1="410" x2="1060" y2="410" stroke="#eee" stroke-width="0.5" /><text x="214" y="434" text-anchor="end" font-size="10" font-family="Arial">gamma_wage1_lag[1]</text><line x1="220" y1="430" x2="1060" y2="430" stroke="#eee" stroke-width="0.5" /><text x="214" y="454" text-anchor="end" font-size="10" font-family="Arial">gamma_wage1_lag[2]</text><line x1="220" y1="450" x2="1060" y2="450" stroke="#eee" stroke-width="0.5" /><text x="214" y="474" text-anchor="end" font-size="10" font-family="Arial">gamma_wage2_0</text><line x1="220" y1="470" x2="1060" y2="470" stroke="#eee" stroke-width="0.5" /><text x="214" y="494" text-anchor="end" font-size="10" font-family="Arial">gamma_wage2_lag[1]</text><line x1="220" y1="490" x2="1060" y2="490" stroke="#eee" stroke-width="0.5" /><text x="214" y="514" text-anchor="end" font-size="10" font-family="Arial">gamma_wage2_lag[2]</text><line x1="220" y1="510" x2="1060" y2="510" stroke="#eee" stroke-width="0.5" /><text x="214" y="534" text-anchor="end" font-size="10" font-family="Arial">gamma_wage3_0</text><line x1="220" y1="530" x2="1060" y2="530" stroke="#eee" stroke-width="0.5" /><text x="214" y="554" text-anchor="end" font-size="10" font-family="Arial">gamma_wage3_lag[1]</text><line x1="220" y1="550" x2="1060" y2="550" stroke="#eee" stroke-width="0.5" /><text x="214" y="574" text-anchor="end" font-size="10" font-family="Arial">gamma_wage3_lag[2]</text><line x1="220" y1="570" x2="1060" y2="570" stroke="#eee" stroke-width="0.5" /><text x="214" y="594" text-anchor="end" font-size="10" font-family="Arial">lambda_pt_0</text><line x1="220" y1="590" x2="1060" y2="590" stroke="#eee" stroke-width="0.5" /><text x="214" y="614" text-anchor="end" font-size="10" font-family="Arial">lambda_wage1_0</text><line x1="220" y1="610" x2="1060" y2="610" stroke="#eee" stroke-width="0.5" /><text x="214" y="634" text-anchor="end" font-size="10" font-family="Arial">lambda_wage2_0</text><line x1="220" y1="630" x2="1060" y2="630" stroke="#eee" stroke-width="0.5" /><text x="214" y="654" text-anchor="end" font-size="10" font-family="Arial">lambda_wage3_0</text><line x1="220" y1="650" x2="1060" y2="650" stroke="#eee" stroke-width="0.5" /><text x="214" y="674" text-anchor="end" font-size="10" font-family="Arial">nhat_init</text><line x1="220" y1="670" x2="1060" y2="670" stroke="#eee" stroke-width="0.5" /><text x="214" y="694" text-anchor="end" font-size="10" font-family="Arial">phi_pt_0</text><line x1="220" y1="690" x2="1060" y2="690" stroke="#eee" stroke-width="0.5" /><text x="214" y="714" text-anchor="end" font-size="10" font-family="Arial">phi_pt_lag[1]</text><line x1="220" y1="710" x2="1060" y2="710" stroke="#eee" stroke-width="0.5" /><text x="214" y="734" text-anchor="end" font-size="10" font-family="Arial">phi_pt_lag[2]</text><line x1="220" y1="730" x2="1060" y2="730" stroke="#eee" stroke-width="0.5" /><text x="214" y="754" text-anchor="end" font-size="10" font-family="Arial">phi_pt_lag[3]</text><line x1="220" y1="750" x2="1060" y2="750" stroke="#eee" stroke-width="0.5" /><text x="214" y="774" text-anchor="end" font-size="10" font-family="Arial">phi_pt_lag[4]</text><line x1="220" y1="770" x2="1060" y2="770" stroke="#eee" stroke-width="0.5" /><text x="214" y="794" text-anchor="end" font-size="10" font-family="Arial">pthat_init[1]</text><line x1="220" y1="790" x2="1060" y2="790" stroke="#eee" stroke-width="0.5" /><text x="214" y="814" text-anchor="end" font-size="10" font-family="Arial">pthat_init[2]</text><line x1="220" y1="810" x2="1060" y2="810" stroke="#eee" stroke-width="0.5" /><text x="214" y="834" text-anchor="end" font-size="10" font-family="Arial">pthat_init[3]</text><line x1="220" y1="830" x2="1060" y2="830" stroke="#eee" stroke-width="0.5" /><text x="214" y="854" text-anchor="end" font-size="10" font-family="Arial">pthat_init[4]</text><line x1="220" y1="850" x2="1060" y2="850" stroke="#eee" stroke-width="0.5" /><text x="214" y="874" text-anchor="end" font-size="10" font-family="Arial">pthat_init[5]</text><line x1="220" y1="870" x2="1060" y2="870" stroke="#eee" stroke-width="0.5" /><text x="214" y="894" text-anchor="end" font-size="10" font-family="Arial">pthat_init[6]</text><line x1="220" y1="890" x2="1060" y2="890" stroke="#eee" stroke-width="0.5" /><text x="214" y="914" text-anchor="end" font-size="10" font-family="Arial">pthat_init[7]</text><line x1="220" y1="910" x2="1060" y2="910" stroke="#eee" stroke-width="0.5" /><text x="214" y="934" text-anchor="end" font-size="10" font-family="Arial">tau</text><line x1="220" y1="930" x2="1060" y2="930" stroke="#eee" stroke-width="0.5" /><text x="214" y="954" text-anchor="end" font-size="10" font-family="Arial">wage1_init[1]</text><line x1="220" y1="950" x2="1060" y2="950" stroke="#eee" stroke-width="0.5" /><text x="214" y="974" text-anchor="end" font-size="10" font-family="Arial">wage1_init[2]</text><line x1="220" y1="970" x2="1060" y2="970" stroke="#eee" stroke-width="0.5" /><text x="214" y="994" text-anchor="end" font-size="10" font-family="Arial">wage1_init[3]</text><line x1="220" y1="990" x2="1060" y2="990" stroke="#eee" stroke-width="0.5" /><text x="214" y="1014" text-anchor="end" font-size="10" font-family="Arial">wage1_init[4]</text><line x1="220" y1="1010" x2="1060" y2="1010" stroke="#eee" stroke-width="0.5" /><text x="214" y="1034" text-anchor="end" font-size="10" font-family="Arial">wage1_init[5]</text><line x1="220" y1="1030" x2="1060" y2="1030" stroke="#eee" stroke-width="0.5" /><text x="214" y="1054" text-anchor="end" font-size="10" font-family="Arial">wage2_init[1]</text><line x1="220" y1="1050" x2="1060" y2="1050" stroke="#eee" stroke-width="0.5" /><text x="214" y="1074" text-anchor="end" font-size="10" font-family="Arial">wage2_init[2]</text><line x1="220" y1="1070" x2="1060" y2="1070" stroke="#eee" stroke-width="0.5" /><text x="214" y="1094" text-anchor="end" font-size="10" font-family="Arial">wage2_init[3]</text><line x1="220" y1="1090" x2="1060" y2="1090" stroke="#eee" stroke-width="0.5" /><text x="214" y="1114" text-anchor="end" font-size="10" font-family="Arial">wage2_init[4]</text><line x1="220" y1="1110" x2="1060" y2="1110" stroke="#eee" stroke-width="0.5" /><text x="214" y="1134" text-anchor="end" font-size="10" font-family="Arial">wage2_init[5]</text><line x1="220" y1="1130" x2="1060" y2="1130" stroke="#eee" stroke-width="0.5" /><text x="214" y="1154" text-anchor="end" font-size="10" font-family="Arial">wage3_init[1]</text><line x1="220" y1="1150" x2="1060" y2="1150" stroke="#eee" stroke-width="0.5" /><text x="214" y="1174" text-anchor="end" font-size="10" font-family="Arial">wage3_init[2]</text><line x1="220" y1="1170" x2="1060" y2="1170" stroke="#eee" stroke-width="0.5" /><text x="214" y="1194" text-anchor="end" font-size="10" font-family="Arial">wage3_init[3]</text><line x1="220" y1="1190" x2="1060" y2="1190" stroke="#eee" stroke-width="0.5" /><text x="214" y="1214" text-anchor="end" font-size="10" font-family="Arial">wage3_init[4]</text><line x1="220" y1="1210" x2="1060" y2="1210" stroke="#eee" stroke-width="0.5" /><text x="214" y="1234" text-anchor="end" font-size="10" font-family="Arial">wage3_init[5]</text><line x1="220" y1="1230" x2="1060" y2="1230" stroke="#eee" stroke-width="0.5" /><text x="214" y="1254" text-anchor="end" font-size="10" font-family="Arial">wage_missing[1]</text><line x1="220" y1="1250" x2="1060" y2="1250" stroke="#eee" stroke-width="0.5" /><text x="214" y="1274" text-anchor="end" font-size="10" font-family="Arial">wage_missing[2]</text><line x1="220" y1="1270" x2="1060" y2="1270" stroke="#eee" stroke-width="0.5" /><text x="214" y="1294" text-anchor="end" font-size="10" font-family="Arial">wage_missing[3]</text><line x1="220" y1="1290" x2="1060" y2="1290" stroke="#eee" stroke-width="0.5" /><text x="214" y="1314" text-anchor="end" font-size="10" font-family="Arial">xi_pt[1]</text><line x1="220" y1="1310" x2="1060" y2="1310" stroke="#eee" stroke-width="0.5" /><text x="214" y="1334" text-anchor="end" font-size="10" font-family="Arial">xi_pt[2]</text><line x1="220" y1="1330" x2="1060" y2="1330" stroke="#eee" stroke-width="0.5" /><text x="214" y="1354" text-anchor="end" font-size="10" font-family="Arial">xi_wage1[1]</text><line x1="220" y1="1350" x2="1060" y2="1350" stroke="#eee" stroke-width="0.5" /><text x="214" y="1374" text-anchor="end" font-size="10" font-family="Arial">xi_wage1[2]</text><line x1="220" y1="1370" x2="1060" y2="1370" stroke="#eee" stroke-width="0.5" /><text x="214" y="1394" text-anchor="end" font-size="10" font-family="Arial">xi_wage2[1]</text><line x1="220" y1="1390" x2="1060" y2="1390" stroke="#eee" stroke-width="0.5" /><text x="214" y="1414" text-anchor="end" font-size="10" font-family="Arial">xi_wage2[2]</text><line x1="220" y1="1410" x2="1060" y2="1410" stroke="#eee" stroke-width="0.5" /><text x="214" y="1434" text-anchor="end" font-size="10" font-family="Arial">xi_wage3[1]</text><line x1="220" y1="1430" x2="1060" y2="1430" stroke="#eee" stroke-width="0.5" /><text x="214" y="1454" text-anchor="end" font-size="10" font-family="Arial">xi_wage3[2]</text><line x1="220" y1="1450" x2="1060" y2="1450" stroke="#eee" stroke-width="0.5" /><line x1="220.0" y1="1470" x2="220.0" y2="1476" stroke="#333" stroke-width="1" /><text x="220.0" y="1490" text-anchor="middle" font-size="10" font-family="Arial">-3.98</text><line x1="430.0" y1="1470" x2="430.0" y2="1476" stroke="#333" stroke-width="1" /><text x="430.0" y="1490" text-anchor="middle" font-size="10" font-family="Arial">-1.44</text><line x1="640.0" y1="1470" x2="640.0" y2="1476" stroke="#333" stroke-width="1" /><text x="640.0" y="1490" text-anchor="middle" font-size="10" font-family="Arial">1.11</text><line x1="850.0" y1="1470" x2="850.0" y2="1476" stroke="#333" stroke-width="1" /><text x="850.0" y="1490" text-anchor="middle" font-size="10" font-family="Arial">3.65</text><line x1="1060.0" y1="1470" x2="1060.0" y2="1476" stroke="#333" stroke-width="1" /><text x="1060.0" y="1490" text-anchor="middle" font-size="10" font-family="Arial">6.19</text><circle cx="548.3857493439464" cy="50" r="4" fill="#d62728" stroke="#333" stroke-width="0.8" opacity="1.0" /><circle cx="548.1722721097235" cy="70" r="4" fill="#d62728" stroke="#333" stroke-width="0.8" opacity="1.0" /><circle cx="548.5024708287483" cy="90" r="4" fill="#d62728" stroke="#333" stroke-width="0.8" opacity="1.0" /><circle cx="549.107841652225" cy="110" r="4" fill="#d62728" stroke="#333" stroke-width="0.8" opacity="1.0" /><circle cx="548.1123403585743" cy="130" r="4" fill="#d62728" stroke="#333" stroke-width="0.8" opacity="1.0" /><circle cx="641.6837352479563" cy="150" r="4" fill="#d62728" stroke="#333" stroke-width="0.8" opacity="1.0" /><circle cx="674.4545877512144" cy="170" r="4" fill="#d62728" stroke="#333" stroke-width="0.8" opacity="1.0" /><circle cx="659.371922587223" cy="190" r="4" fill="#d62728" stroke="#333" stroke-width="0.8" opacity="1.0" /><circle cx="561.5587437478412" cy="230" r="4" fill="#d62728" stroke="#333" stroke-width="0.8" opacity="1.0" /><circle cx="618.1003688904054" cy="250" r="4" fill="#d62728" stroke="#333" stroke-width="0.8" opacity="1.0" /><circle cx="557.7268041567186" cy="270" r="4" fill="#d62728" stroke="#333" stroke-width="0.8" opacity="1.0" /><circle cx="521.0747377358991" cy="310" r="4" fill="#d62728" stroke="#333" stroke-width="0.8" opacity="1.0" /><circle cx="577.8778205012813" cy="330" r="4" fill="#d62728" stroke="#333" stroke-width="0.8" opacity="1.0" /><circle cx="531.9906776782077" cy="350" r="4" fill="#d62728" stroke="#333" stroke-width="0.8" opacity="1.0" /><circle cx="533.7504075909914" cy="370" r="4" fill="#d62728" stroke="#333" stroke-width="0.8" opacity="1.0" /><circle cx="514.9218966935914" cy="390" r="4" fill="#d62728" stroke="#333" stroke-width="0.8" opacity="1.0" /><circle cx="468.6441887991645" cy="410" r="4" fill="#d62728" stroke="#333" stroke-width="0.8" opacity="1.0" /><circle cx="536.3192285482357" cy="430" r="4" fill="#d62728" stroke="#333" stroke-width="0.8" opacity="1.0" /><circle cx="552.6371690844583" cy="450" r="4" fill="#d62728" stroke="#333" stroke-width="0.8" opacity="1.0" /><circle cx="523.7472861607268" cy="470" r="4" fill="#d62728" stroke="#333" stroke-width="0.8" opacity="1.0" /><circle cx="573.1142114848026" cy="490" r="4" fill="#d62728" stroke="#333" stroke-width="0.8" opacity="1.0" /><circle cx="479.90360595592597" cy="510" r="4" fill="#d62728" stroke="#333" stroke-width="0.8" opacity="1.0" /><circle cx="539.0383918280546" cy="590" r="4" fill="#d62728" stroke="#333" stroke-width="0.8" opacity="1.0" /><circle cx="324.95145844324793" cy="610" r="4" fill="#d62728" stroke="#333" stroke-width="0.8" opacity="1.0" /><circle cx="475.0624268023614" cy="630" r="4" fill="#d62728" stroke="#333" stroke-width="0.8" opacity="1.0" /><circle cx="1019.8715342894914" cy="670" r="4" fill="#d62728" stroke="#333" stroke-width="0.8" opacity="1.0" /><circle cx="547.8070399918762" cy="690" r="4" fill="#d62728" stroke="#333" stroke-width="0.8" opacity="1.0" /><circle cx="549.4754905733835" cy="710" r="4" fill="#d62728" stroke="#333" stroke-width="0.8" opacity="1.0" /><circle cx="546.4100432181158" cy="730" r="4" fill="#d62728" stroke="#333" stroke-width="0.8" opacity="1.0" /><circle cx="548.848043939716" cy="750" r="4" fill="#d62728" stroke="#333" stroke-width="0.8" opacity="1.0" /><circle cx="546.4699911551076" cy="770" r="4" fill="#d62728" stroke="#333" stroke-width="0.8" opacity="1.0" /><circle cx="606.7568335104439" cy="790" r="4" fill="#d62728" stroke="#333" stroke-width="0.8" opacity="1.0" /><circle cx="590.4253288849139" cy="810" r="4" fill="#d62728" stroke="#333" stroke-width="0.8" opacity="1.0" /><circle cx="590.3688645837491" cy="830" r="4" fill="#d62728" stroke="#333" stroke-width="0.8" opacity="1.0" /><circle cx="573.904085003826" cy="850" r="4" fill="#d62728" stroke="#333" stroke-width="0.8" opacity="1.0" /><circle cx="582.2577882055009" cy="870" r="4" fill="#d62728" stroke="#333" stroke-width="0.8" opacity="1.0" /><circle cx="590.2460370861702" cy="890" r="4" fill="#d62728" stroke="#333" stroke-width="0.8" opacity="1.0" /><circle cx="582.1660882302608" cy="910" r="4" fill="#d62728" stroke="#333" stroke-width="0.8" opacity="1.0" /><circle cx="556.5577294174777" cy="930" r="4" fill="#d62728" stroke="#333" stroke-width="0.8" opacity="1.0" /><circle cx="589.5367430165514" cy="950" r="4" fill="#d62728" stroke="#333" stroke-width="0.8" opacity="1.0" /><circle cx="561.6064911171404" cy="970" r="4" fill="#d62728" stroke="#333" stroke-width="0.8" opacity="1.0" /><circle cx="589.0563864229468" cy="990" r="4" fill="#d62728" stroke="#333" stroke-width="0.8" opacity="1.0" /><circle cx="778.7049507114989" cy="1010" r="4" fill="#d62728" stroke="#333" stroke-width="0.8" opacity="1.0" /><circle cx="575.1447480895383" cy="1030" r="4" fill="#d62728" stroke="#333" stroke-width="0.8" opacity="1.0" /><circle cx="622.5616680540762" cy="1050" r="4" fill="#d62728" stroke="#333" stroke-width="0.8" opacity="1.0" /><circle cx="622.025267045975" cy="1070" r="4" fill="#d62728" stroke="#333" stroke-width="0.8" opacity="1.0" /><circle cx="609.30187659952" cy="1090" r="4" fill="#d62728" stroke="#333" stroke-width="0.8" opacity="1.0" /><circle cx="608.880177286116" cy="1110" r="4" fill="#d62728" stroke="#333" stroke-width="0.8" opacity="1.0" /><circle cx="608.422064399512" cy="1130" r="4" fill="#d62728" stroke="#333" stroke-width="0.8" opacity="1.0" /><circle cx="614.7686470673735" cy="1250" r="4" fill="#d62728" stroke="#333" stroke-width="0.8" opacity="1.0" /><circle cx="616.6864554252954" cy="1270" r="4" fill="#d62728" stroke="#333" stroke-width="0.8" opacity="1.0" /><circle cx="590.7335301925425" cy="1310" r="4" fill="#d62728" stroke="#333" stroke-width="0.8" opacity="1.0" /><circle cx="595.7397759126397" cy="1330" r="4" fill="#d62728" stroke="#333" stroke-width="0.8" opacity="1.0" /><circle cx="969.3836408474684" cy="1350" r="4" fill="#d62728" stroke="#333" stroke-width="0.8" opacity="1.0" /><circle cx="432.9544579802863" cy="1370" r="4" fill="#d62728" stroke="#333" stroke-width="0.8" opacity="1.0" /><circle cx="523.2263035280951" cy="1390" r="4" fill="#d62728" stroke="#333" stroke-width="0.8" opacity="1.0" /><circle cx="523.9665351445802" cy="1410" r="4" fill="#d62728" stroke="#333" stroke-width="0.8" opacity="1.0" /><circle cx="548.4106079527347" cy="50" r="4" fill="#9467bd" stroke="#333" stroke-width="0.8" opacity="1.0" /><circle cx="548.134519010311" cy="70" r="4" fill="#9467bd" stroke="#333" stroke-width="0.8" opacity="1.0" /><circle cx="548.561264898509" cy="90" r="4" fill="#9467bd" stroke="#333" stroke-width="0.8" opacity="1.0" /><circle cx="549.0736848144417" cy="110" r="4" fill="#9467bd" stroke="#333" stroke-width="0.8" opacity="1.0" /><circle cx="548.1153794536729" cy="130" r="4" fill="#9467bd" stroke="#333" stroke-width="0.8" opacity="1.0" /><circle cx="639.5819100792444" cy="150" r="4" fill="#9467bd" stroke="#333" stroke-width="0.8" opacity="1.0" /><circle cx="646.1248462322145" cy="170" r="4" fill="#9467bd" stroke="#333" stroke-width="0.8" opacity="1.0" /><circle cx="671.410486610016" cy="190" r="4" fill="#9467bd" stroke="#333" stroke-width="0.8" opacity="1.0" /><circle cx="657.0321964578407" cy="210" r="4" fill="#9467bd" stroke="#333" stroke-width="0.8" opacity="1.0" /><circle cx="561.6470328784961" cy="230" r="4" fill="#9467bd" stroke="#333" stroke-width="0.8" opacity="1.0" /><circle cx="606.240660682769" cy="250" r="4" fill="#9467bd" stroke="#333" stroke-width="0.8" opacity="1.0" /><circle cx="618.0033126258019" cy="270" r="4" fill="#9467bd" stroke="#333" stroke-width="0.8" opacity="1.0" /><circle cx="557.8555663497687" cy="290" r="4" fill="#9467bd" stroke="#333" stroke-width="0.8" opacity="1.0" /><circle cx="518.7259287545131" cy="310" r="4" fill="#9467bd" stroke="#333" stroke-width="0.8" opacity="1.0" /><circle cx="573.5605602598953" cy="330" r="4" fill="#9467bd" stroke="#333" stroke-width="0.8" opacity="1.0" /><circle cx="526.4726074085434" cy="350" r="4" fill="#9467bd" stroke="#333" stroke-width="0.8" opacity="1.0" /><circle cx="532.5942989849416" cy="370" r="4" fill="#9467bd" stroke="#333" stroke-width="0.8" opacity="1.0" /><circle cx="522.085115702979" cy="390" r="4" fill="#9467bd" stroke="#333" stroke-width="0.8" opacity="1.0" /><circle cx="366.2531022273533" cy="410" r="4" fill="#9467bd" stroke="#333" stroke-width="0.8" opacity="1.0" /><circle cx="525.4988957330123" cy="430" r="4" fill="#9467bd" stroke="#333" stroke-width="0.8" opacity="1.0" /><circle cx="594.7408497646857" cy="450" r="4" fill="#9467bd" stroke="#333" stroke-width="0.8" opacity="1.0" /><circle cx="466.80533684397494" cy="470" r="4" fill="#9467bd" stroke="#333" stroke-width="0.8" opacity="1.0" /><circle cx="535.0551411476242" cy="490" r="4" fill="#9467bd" stroke="#333" stroke-width="0.8" opacity="1.0" /><circle cx="551.1731780213635" cy="510" r="4" fill="#9467bd" stroke="#333" stroke-width="0.8" opacity="1.0" /><circle cx="523.1078950179535" cy="530" r="4" fill="#9467bd" stroke="#333" stroke-width="0.8" opacity="1.0" /><circle cx="574.2833282567706" cy="550" r="4" fill="#9467bd" stroke="#333" stroke-width="0.8" opacity="1.0" /><circle cx="479.47490323704784" cy="570" r="4" fill="#9467bd" stroke="#333" stroke-width="0.8" opacity="1.0" /><circle cx="548.7731802290937" cy="590" r="4" fill="#9467bd" stroke="#333" stroke-width="0.8" opacity="1.0" /><circle cx="258.1818181818182" cy="610" r="4" fill="#9467bd" stroke="#333" stroke-width="0.8" opacity="1.0" /><circle cx="325.7592295313633" cy="630" r="4" fill="#9467bd" stroke="#333" stroke-width="0.8" opacity="1.0" /><circle cx="474.1175109649042" cy="650" r="4" fill="#9467bd" stroke="#333" stroke-width="0.8" opacity="1.0" /><circle cx="1021.818181818182" cy="670" r="4" fill="#9467bd" stroke="#333" stroke-width="0.8" opacity="1.0" /><circle cx="547.3223318073431" cy="690" r="4" fill="#9467bd" stroke="#333" stroke-width="0.8" opacity="1.0" /><circle cx="549.103422046378" cy="710" r="4" fill="#9467bd" stroke="#333" stroke-width="0.8" opacity="1.0" /><circle cx="546.3460347911512" cy="730" r="4" fill="#9467bd" stroke="#333" stroke-width="0.8" opacity="1.0" /><circle cx="549.9139846814259" cy="750" r="4" fill="#9467bd" stroke="#333" stroke-width="0.8" opacity="1.0" /><circle cx="547.5808787736116" cy="770" r="4" fill="#9467bd" stroke="#333" stroke-width="0.8" opacity="1.0" /><circle cx="606.8464971443293" cy="790" r="4" fill="#9467bd" stroke="#333" stroke-width="0.8" opacity="1.0" /><circle cx="590.3955638962625" cy="810" r="4" fill="#9467bd" stroke="#333" stroke-width="0.8" opacity="1.0" /><circle cx="590.2925879341069" cy="830" r="4" fill="#9467bd" stroke="#333" stroke-width="0.8" opacity="1.0" /><circle cx="573.8529014151352" cy="850" r="4" fill="#9467bd" stroke="#333" stroke-width="0.8" opacity="1.0" /><circle cx="582.179550995613" cy="870" r="4" fill="#9467bd" stroke="#333" stroke-width="0.8" opacity="1.0" /><circle cx="590.3724559308123" cy="890" r="4" fill="#9467bd" stroke="#333" stroke-width="0.8" opacity="1.0" /><circle cx="582.143245949848" cy="910" r="4" fill="#9467bd" stroke="#333" stroke-width="0.8" opacity="1.0" /><circle cx="556.6011454395335" cy="930" r="4" fill="#9467bd" stroke="#333" stroke-width="0.8" opacity="1.0" /><circle cx="533.1311918939225" cy="950" r="4" fill="#9467bd" stroke="#333" stroke-width="0.8" opacity="1.0" /><circle cx="586.1246991725029" cy="970" r="4" fill="#9467bd" stroke="#333" stroke-width="0.8" opacity="1.0" /><circle cx="594.2269401288349" cy="990" r="4" fill="#9467bd" stroke="#333" stroke-width="0.8" opacity="1.0" /><circle cx="641.5507829793773" cy="1010" r="4" fill="#9467bd" stroke="#333" stroke-width="0.8" opacity="1.0" /><circle cx="490.0324030733497" cy="1030" r="4" fill="#9467bd" stroke="#333" stroke-width="0.8" opacity="1.0" /><circle cx="589.3945748055326" cy="1050" r="4" fill="#9467bd" stroke="#333" stroke-width="0.8" opacity="1.0" /><circle cx="561.1247982720342" cy="1070" r="4" fill="#9467bd" stroke="#333" stroke-width="0.8" opacity="1.0" /><circle cx="589.3900808723276" cy="1090" r="4" fill="#9467bd" stroke="#333" stroke-width="0.8" opacity="1.0" /><circle cx="778.9818724827447" cy="1110" r="4" fill="#9467bd" stroke="#333" stroke-width="0.8" opacity="1.0" /><circle cx="575.0267289906848" cy="1130" r="4" fill="#9467bd" stroke="#333" stroke-width="0.8" opacity="1.0" /><circle cx="622.6792475586132" cy="1150" r="4" fill="#9467bd" stroke="#333" stroke-width="0.8" opacity="1.0" /><circle cx="621.9708852645623" cy="1170" r="4" fill="#9467bd" stroke="#333" stroke-width="0.8" opacity="1.0" /><circle cx="609.2762897390285" cy="1190" r="4" fill="#9467bd" stroke="#333" stroke-width="0.8" opacity="1.0" /><circle cx="608.8012299702907" cy="1210" r="4" fill="#9467bd" stroke="#333" stroke-width="0.8" opacity="1.0" /><circle cx="608.3832693279633" cy="1230" r="4" fill="#9467bd" stroke="#333" stroke-width="0.8" opacity="1.0" /><circle cx="605.4180946110662" cy="1250" r="4" fill="#9467bd" stroke="#333" stroke-width="0.8" opacity="1.0" /><circle cx="615.433483338782" cy="1270" r="4" fill="#9467bd" stroke="#333" stroke-width="0.8" opacity="1.0" /><circle cx="617.1936270438777" cy="1290" r="4" fill="#9467bd" stroke="#333" stroke-width="0.8" opacity="1.0" /><circle cx="591.3148222881655" cy="1310" r="4" fill="#9467bd" stroke="#333" stroke-width="0.8" opacity="1.0" /><circle cx="593.9198952572538" cy="1330" r="4" fill="#9467bd" stroke="#333" stroke-width="0.8" opacity="1.0" /><circle cx="990.2335627319844" cy="1350" r="4" fill="#9467bd" stroke="#333" stroke-width="0.8" opacity="1.0" /><circle cx="516.056782026621" cy="1370" r="4" fill="#9467bd" stroke="#333" stroke-width="0.8" opacity="1.0" /><circle cx="970.3610293563241" cy="1390" r="4" fill="#9467bd" stroke="#333" stroke-width="0.8" opacity="1.0" /><circle cx="433.6945956611987" cy="1410" r="4" fill="#9467bd" stroke="#333" stroke-width="0.8" opacity="1.0" /><circle cx="522.5566431438191" cy="1430" r="4" fill="#9467bd" stroke="#333" stroke-width="0.8" opacity="1.0" /><circle cx="523.5773559841862" cy="1450" r="4" fill="#9467bd" stroke="#333" stroke-width="0.8" opacity="1.0" /><circle cx="220" cy="1500" r="4" fill="#d62728" stroke="#333" stroke-width="0.5" /><text x="230" y="1504" font-size="10" font-family="Arial">CPI with AENA & WPI model</text><circle cx="380" cy="1500" r="4" fill="#9467bd" stroke="#333" stroke-width="0.5" /><text x="390" y="1504" font-size="10" font-family="Arial">CPI with ULC, AENA & WPI model</text></svg>